<svg width="24" height="24" viewBox="0 0 24 24" fill="none" xmlns="http://www.w3.org/2000/svg">
<path fill-rule="evenodd" clip-rule="evenodd" d="M19.3849 12.76C19.5256 12.9007 19.6046 13.0914 19.6046 13.2903C19.6046 13.4893 19.5256 13.68 19.3849 13.8207L13.021 20.1846C12.8803 20.3253 12.6896 20.4043 12.4907 20.4043C12.2917 20.4043 12.101 20.3253 11.9603 20.1846L5.59636 13.8207C5.45571 13.68 5.37669 13.4893 5.37669 13.2903C5.37669 13.0914 5.45571 12.9007 5.59636 12.76C5.73701 12.6194 5.92778 12.5403 6.12669 12.5403C6.3256 12.5403 6.51637 12.6194 6.65702 12.76L11.7411 17.8441L11.7411 3.39085C11.7376 3.2902 11.7543 3.18986 11.7904 3.09582C11.8265 3.00178 11.8811 2.91597 11.951 2.8435C12.021 2.77104 12.1048 2.71341 12.1975 2.67405C12.2902 2.63468 12.3899 2.6144 12.4907 2.6144C12.5914 2.6144 12.6911 2.63468 12.7838 2.67405C12.8765 2.71341 12.9603 2.77104 13.0303 2.84351C13.1002 2.91597 13.1548 3.00178 13.1909 3.09582C13.227 3.18986 13.2437 3.2902 13.2402 3.39085L13.2402 17.8441L18.3243 12.76C18.617 12.4673 19.0922 12.4673 19.3849 12.76Z" fill="black"/>
</svg>
