<svg width="24" height="24" viewBox="0 0 24 24" fill="none" xmlns="http://www.w3.org/2000/svg">
<path fill-rule="evenodd" clip-rule="evenodd" d="M15.2652 16.2348C15.4116 16.3813 15.4116 16.6187 15.2652 16.7652L12.2652 19.7652C12.1187 19.9116 11.8813 19.9116 11.7348 19.7652L8.73483 16.7652C8.58839 16.6187 8.58839 16.3813 8.73483 16.2348C8.88128 16.0884 9.11872 16.0884 9.26516 16.2348L12 18.9697L14.7348 16.2348C14.8813 16.0884 15.1187 16.0884 15.2652 16.2348Z" fill="black"/>
<path fill-rule="evenodd" clip-rule="evenodd" d="M12 4.125C12.2071 4.125 12.375 4.29289 12.375 4.5V19.5C12.375 19.7071 12.2071 19.875 12 19.875C11.7929 19.875 11.625 19.7071 11.625 19.5V4.5C11.625 4.29289 11.7929 4.125 12 4.125Z" fill="black"/>
</svg>
