<svg width="24" height="24" viewBox="0 0 24 24" fill="none" xmlns="http://www.w3.org/2000/svg">
<path fill-rule="evenodd" clip-rule="evenodd" d="M8.73483 7.76517C8.58839 7.61872 8.58839 7.38128 8.73483 7.23483L11.7348 4.23483C11.8813 4.08839 12.1187 4.08839 12.2652 4.23483L15.2652 7.23483C15.4116 7.38128 15.4116 7.61872 15.2652 7.76517C15.1187 7.91161 14.8813 7.91161 14.7348 7.76517L12 5.03033L9.26517 7.76517C9.11872 7.91161 8.88128 7.91161 8.73483 7.76517Z" fill="black"/>
<path fill-rule="evenodd" clip-rule="evenodd" d="M12 19.875C11.7929 19.875 11.625 19.7071 11.625 19.5L11.625 4.5C11.625 4.29289 11.7929 4.125 12 4.125C12.2071 4.125 12.375 4.29289 12.375 4.5L12.375 19.5C12.375 19.7071 12.2071 19.875 12 19.875Z" fill="black"/>
</svg>
