<svg width="24" height="24" viewBox="0 0 24 24" fill="none" xmlns="http://www.w3.org/2000/svg">
<path fill-rule="evenodd" clip-rule="evenodd" d="M16.2348 8.73483C16.3813 8.58839 16.6187 8.58839 16.7652 8.73483L19.7652 11.7348C19.9116 11.8813 19.9116 12.1187 19.7652 12.2652L16.7652 15.2652C16.6187 15.4116 16.3813 15.4116 16.2348 15.2652C16.0884 15.1187 16.0884 14.8813 16.2348 14.7348L18.9697 12L16.2348 9.26517C16.0884 9.11872 16.0884 8.88128 16.2348 8.73483Z" fill="black"/>
<path fill-rule="evenodd" clip-rule="evenodd" d="M4.125 12C4.125 11.7929 4.29289 11.625 4.5 11.625H19.5C19.7071 11.625 19.875 11.7929 19.875 12C19.875 12.2071 19.7071 12.375 19.5 12.375H4.5C4.29289 12.375 4.125 12.2071 4.125 12Z" fill="black"/>
</svg>
