<svg width="24" height="24" viewBox="0 0 24 24" fill="none" xmlns="http://www.w3.org/2000/svg">
<path fill-rule="evenodd" clip-rule="evenodd" d="M12 3.375C12.2071 3.375 12.375 3.54289 12.375 3.75V11.3505L18.9572 7.55024C19.1366 7.44669 19.3659 7.50814 19.4695 7.6875C19.573 7.86686 19.5116 8.09621 19.3322 8.19976L12.75 12L19.3322 15.8002C19.5116 15.9038 19.573 16.1331 19.4695 16.3125C19.3659 16.4919 19.1366 16.5533 18.9572 16.4498L12.375 12.6495V20.25C12.375 20.4571 12.2071 20.625 12 20.625C11.7929 20.625 11.625 20.4571 11.625 20.25V12.6495L5.04279 16.4498C4.86343 16.5533 4.63408 16.4919 4.53053 16.3125C4.42697 16.1331 4.48843 15.9038 4.66779 15.8002L11.25 12L4.66779 8.19976C4.48843 8.09621 4.42697 7.86686 4.53053 7.6875C4.63408 7.50814 4.86343 7.44669 5.04279 7.55024L11.625 11.3505V3.75C11.625 3.54289 11.7929 3.375 12 3.375Z" fill="black"/>
</svg>
