<svg width="24" height="24" viewBox="0 0 24 24" fill="none" xmlns="http://www.w3.org/2000/svg">
<path fill-rule="evenodd" clip-rule="evenodd" d="M15.28 5.22C15.1394 5.07955 14.9488 5.00066 14.75 5.00066C14.5513 5.00066 14.3606 5.07955 14.22 5.22L7.97001 11.47C7.82956 11.6106 7.75067 11.8012 7.75067 12C7.75067 12.1988 7.82956 12.3894 7.97001 12.53L14.22 18.78C14.2887 18.8537 14.3715 18.9128 14.4635 18.9538C14.5555 18.9948 14.6548 19.0168 14.7555 19.0186C14.8562 19.0204 14.9562 19.0018 15.0496 18.9641C15.143 18.9264 15.2278 18.8703 15.299 18.799C15.3703 18.7278 15.4264 18.643 15.4641 18.5496C15.5019 18.4562 15.5204 18.3562 15.5186 18.2555C15.5168 18.1548 15.4948 18.0555 15.4538 17.9635C15.4128 17.8715 15.3537 17.7887 15.28 17.72L9.56001 12L15.28 6.28C15.4205 6.13937 15.4994 5.94875 15.4994 5.75C15.4994 5.55125 15.4205 5.36063 15.28 5.22Z" fill="black"/>
</svg>
