<svg width="24" height="24" viewBox="0 0 24 24" fill="none" xmlns="http://www.w3.org/2000/svg">
<path fill-rule="evenodd" clip-rule="evenodd" d="M7.98937 5.21999C8.12999 5.07954 8.32062 5.00065 8.51937 5.00065C8.71812 5.00065 8.90874 5.07954 9.04937 5.21999L15.2994 11.47C15.4398 11.6106 15.5187 11.8012 15.5187 12C15.5187 12.1987 15.4398 12.3894 15.2994 12.53L9.04937 18.78C8.9807 18.8537 8.8979 18.9128 8.80591 18.9538C8.71391 18.9948 8.61459 19.0168 8.51389 19.0186C8.41319 19.0204 8.31316 19.0018 8.21977 18.9641C8.12638 18.9264 8.04155 18.8702 7.97033 18.799C7.89911 18.7278 7.84297 18.643 7.80524 18.5496C7.76752 18.4562 7.749 18.3562 7.75078 18.2555C7.75255 18.1548 7.77459 18.0555 7.81559 17.9635C7.85658 17.8715 7.91568 17.7887 7.98937 17.72L13.7094 12L7.98937 6.27999C7.84892 6.13937 7.77003 5.94874 7.77003 5.74999C7.77003 5.55124 7.84892 5.36062 7.98937 5.21999Z" fill="black"/>
</svg>
