<svg width="24" height="24" viewBox="0 0 24 24" fill="none" xmlns="http://www.w3.org/2000/svg">
<path fill-rule="evenodd" clip-rule="evenodd" d="M4.84501 15.655C4.70456 15.5144 4.62567 15.3237 4.62567 15.125C4.62567 14.9262 4.70456 14.7356 4.84501 14.595L11.095 8.34499C11.2356 8.20454 11.4263 8.12565 11.625 8.12565C11.8238 8.12565 12.0144 8.20454 12.155 8.34499L18.405 14.595C18.4787 14.6637 18.5378 14.7465 18.5788 14.8385C18.6198 14.9304 18.6418 15.0298 18.6436 15.1305C18.6454 15.2312 18.6269 15.3312 18.5891 15.4246C18.5514 15.518 18.4953 15.6028 18.424 15.674C18.3528 15.7452 18.268 15.8014 18.1746 15.8391C18.0812 15.8768 17.9812 15.8954 17.8805 15.8936C17.7798 15.8918 17.6805 15.8698 17.5885 15.8288C17.4965 15.7878 17.4137 15.7287 17.345 15.655L11.625 9.93499L5.90501 15.655C5.76439 15.7954 5.57376 15.8743 5.37501 15.8743C5.17626 15.8743 4.98564 15.7954 4.84501 15.655Z" fill="black"/>
</svg>
