<svg width="24" height="24" viewBox="0 0 24 24" fill="none" xmlns="http://www.w3.org/2000/svg">
<path fill-rule="evenodd" clip-rule="evenodd" d="M5.2201 7.97C5.07965 8.11063 5.00076 8.30125 5.00076 8.5C5.00076 8.69875 5.07965 8.88937 5.2201 9.03L11.4701 15.28C11.6107 15.4205 11.8014 15.4993 12.0001 15.4993C12.1989 15.4993 12.3895 15.4205 12.5301 15.28L18.7801 9.03C18.9126 8.88782 18.9847 8.69978 18.9813 8.50548C18.9778 8.31118 18.8991 8.12579 18.7617 7.98838C18.6243 7.85097 18.4389 7.77225 18.2446 7.76882C18.0503 7.7654 17.8623 7.83752 17.7201 7.97L12.0001 13.69L6.2801 7.97C6.13948 7.82955 5.94885 7.75066 5.7501 7.75066C5.55135 7.75066 5.36073 7.82955 5.2201 7.97Z" fill="black"/>
</svg>
