<svg width="24" height="24" viewBox="0 0 24 24" fill="none" xmlns="http://www.w3.org/2000/svg">
<path fill-rule="evenodd" clip-rule="evenodd" d="M20.226 7.25C19.2866 5.62333 17.886 4.31174 16.2012 3.48107C14.5164 2.6504 12.6232 2.33795 10.7608 2.58323C8.89846 2.82851 7.15066 3.62051 5.73841 4.85907C4.32616 6.09764 3.31288 7.72716 2.82669 9.54158C2.3405 11.356 2.40325 13.2739 3.00699 15.0526C3.61072 16.8314 4.72835 18.3912 6.21853 19.5348C7.70872 20.6784 9.50455 21.3545 11.3789 21.4775C13.2533 21.6005 15.1221 21.165 16.749 20.226C16.9212 20.1281 17.1251 20.1023 17.3162 20.1542C17.5074 20.2061 17.6702 20.3315 17.7692 20.503C17.8683 20.6745 17.8954 20.8782 17.8448 21.0697C17.7942 21.2612 17.6699 21.4248 17.499 21.525C12.239 24.562 5.51202 22.76 2.47502 17.499C-0.561976 12.24 1.24002 5.512 6.50102 2.475C11.76 -0.561999 18.488 1.24 21.525 6.501C22.3785 7.97472 22.8767 9.62711 22.98 11.327C22.993 11.383 23 11.44 23 11.5V13.75C23.0002 14.5371 22.7351 15.3013 22.2475 15.9191C21.7599 16.537 21.0783 16.9724 20.3127 17.1552C19.5471 17.3379 18.7423 17.2573 18.0282 16.9263C17.3141 16.5953 16.7324 16.0333 16.377 15.331C15.5963 16.3569 14.48 17.076 13.223 17.3626C11.9661 17.6492 10.6484 17.4852 9.50005 16.8991C8.35174 16.3131 7.44579 15.3423 6.94043 14.1562C6.43506 12.9702 6.3624 11.6443 6.73513 10.4101C7.10786 9.17598 7.90229 8.11197 8.97968 7.40394C10.0571 6.6959 11.349 6.38885 12.6297 6.53639C13.9104 6.68394 15.0987 7.2767 15.9868 8.21117C16.875 9.14564 17.4067 10.3624 17.489 11.649C17.4964 11.6916 17.5 11.7348 17.5 11.778V13.75C17.5 14.2804 17.7107 14.7891 18.0858 15.1642C18.4609 15.5393 18.9696 15.75 19.5 15.75C20.0305 15.75 20.5392 15.5393 20.9142 15.1642C21.2893 14.7891 21.5 14.2804 21.5 13.75V11.984C21.4989 10.3218 21.0595 8.6892 20.226 7.251V7.25ZM16 12C16 10.9391 15.5786 9.92172 14.8285 9.17157C14.0783 8.42143 13.0609 8 12 8C10.9392 8 9.92174 8.42143 9.1716 9.17157C8.42145 9.92172 8.00002 10.9391 8.00002 12C8.00002 13.0609 8.42145 14.0783 9.1716 14.8284C9.92174 15.5786 10.9392 16 12 16C13.0609 16 14.0783 15.5786 14.8285 14.8284C15.5786 14.0783 16 13.0609 16 12Z" fill="black"/>
</svg>
