<svg width="24" height="24" viewBox="0 0 24 24" fill="none" xmlns="http://www.w3.org/2000/svg">
<path d="M14 20.408C13.508 20.716 13.097 20.954 12.808 21.117C12.655 21.203 12.5 21.287 12.345 21.369H12.343C12.2369 21.4236 12.1193 21.452 12 21.452C11.8807 21.452 11.7631 21.4236 11.657 21.369C11.5007 21.2875 11.3457 21.2034 11.192 21.117C9.48976 20.1568 7.88167 19.0386 6.389 17.777C3.8 15.572 1 12.331 1 8.513C1 5.052 3.829 2.5 6.736 2.5C9.03 2.5 10.881 3.726 12 5.605C13.12 3.726 14.97 2.5 17.264 2.5C20.17 2.5 23 5.052 23 8.514C23 12.332 20.199 15.574 17.611 17.776C16.4719 18.7387 15.2651 19.6183 14 20.408Z" fill="black"/>
</svg>
