<svg width="24" height="24" viewBox="0 0 24 24" fill="none" xmlns="http://www.w3.org/2000/svg">
<path fill-rule="evenodd" clip-rule="evenodd" d="M7.65402 19.8571H7.64911H4.38839V9.35804H7.65402V19.8571ZM6.01875 7.92411C4.97277 7.92411 4.12812 7.07455 4.12812 6.03348C4.12812 4.99241 4.97277 4.14286 6.01875 4.14286C7.05982 4.14286 7.90937 4.99241 7.90937 6.03348C7.90937 7.07946 7.06473 7.92411 6.01875 7.92411ZM19.8719 19.8571H16.6112V14.75C16.6112 13.5321 16.5866 11.9656 14.917 11.9656C13.2179 11.9656 12.9576 13.2915 12.9576 14.6616V19.8571H9.69688V9.35804H12.825V10.792H12.8692C13.3062 9.96696 14.3719 9.09777 15.958 9.09777C19.258 9.09777 19.8719 11.2732 19.8719 14.1018V19.8571Z" fill="black"/>
</svg>
