<svg width="24" height="24" viewBox="0 0 24 24" fill="none" xmlns="http://www.w3.org/2000/svg">
<path d="M5.75 5.5C5.55109 5.5 5.36032 5.57902 5.21967 5.71967C5.07902 5.86032 5 6.05109 5 6.25C5 6.44891 5.07902 6.63968 5.21967 6.78033C5.36032 6.92098 5.55109 7 5.75 7H17.25C17.4489 7 17.6397 6.92098 17.7803 6.78033C17.921 6.63968 18 6.44891 18 6.25C18 6.05109 17.921 5.86032 17.7803 5.71967C17.6397 5.57902 17.4489 5.5 17.25 5.5H5.75ZM5.75 11.5C5.55109 11.5 5.36032 11.579 5.21967 11.7197C5.07902 11.8603 5 12.0511 5 12.25C5 12.4489 5.07902 12.6397 5.21967 12.7803C5.36032 12.921 5.55109 13 5.75 13H17.25C17.4489 13 17.6397 12.921 17.7803 12.7803C17.921 12.6397 18 12.4489 18 12.25C18 12.0511 17.921 11.8603 17.7803 11.7197C17.6397 11.579 17.4489 11.5 17.25 11.5H5.75ZM5.75 17.5C5.55109 17.5 5.36032 17.579 5.21967 17.7197C5.07902 17.8603 5 18.0511 5 18.25C5 18.4489 5.07902 18.6397 5.21967 18.7803C5.36032 18.921 5.55109 19 5.75 19H17.25C17.4489 19 17.6397 18.921 17.7803 18.7803C17.921 18.6397 18 18.4489 18 18.25C18 18.0511 17.921 17.8603 17.7803 17.7197C17.6397 17.579 17.4489 17.5 17.25 17.5H5.75Z" fill="black"/>
</svg>
