<svg width="24" height="24" viewBox="0 0 24 24" fill="none" xmlns="http://www.w3.org/2000/svg">
<path fill-rule="evenodd" clip-rule="evenodd" d="M3.25 4C3.1837 4 3.12011 4.02634 3.07322 4.07322C3.02634 4.12011 3 4.1837 3 4.25V16.75C3 16.888 3.112 17 3.25 17H5.75C5.94891 17 6.13968 17.079 6.28033 17.2197C6.42098 17.3603 6.5 17.5511 6.5 17.75V20.94L10.22 17.22C10.3605 17.0793 10.5512 17.0002 10.75 17H20.75C20.8163 17 20.8799 16.9737 20.9268 16.9268C20.9737 16.8799 21 16.8163 21 16.75V4.25C21 4.1837 20.9737 4.12011 20.9268 4.07322C20.8799 4.02634 20.8163 4 20.75 4H3.25ZM1.5 4.25C1.5 3.284 2.284 2.5 3.25 2.5H20.75C21.716 2.5 22.5 3.284 22.5 4.25V16.75C22.5 17.2141 22.3156 17.6592 21.9874 17.9874C21.6592 18.3156 21.2141 18.5 20.75 18.5H11.06L7.487 22.073C7.28324 22.2767 7.02367 22.4153 6.74111 22.4715C6.45854 22.5277 6.16567 22.4988 5.8995 22.3886C5.63333 22.2784 5.40581 22.0917 5.24571 21.8522C5.08561 21.6127 5.0001 21.3311 5 21.043V18.5H3.25C2.78587 18.5 2.34075 18.3156 2.01256 17.9874C1.68437 17.6592 1.5 17.2141 1.5 16.75V4.25Z" fill="black"/>
</svg>
