<svg width="24" height="24" viewBox="0 0 24 24" fill="none" xmlns="http://www.w3.org/2000/svg">
<path fill-rule="evenodd" clip-rule="evenodd" d="M18.25 15.5C18.4489 15.5 18.6397 15.421 18.7804 15.2803C18.921 15.1397 19 14.9489 19 14.75V5.75C19 5.55109 18.921 5.36032 18.7804 5.21967C18.6397 5.07902 18.4489 5 18.25 5H9.25003C9.05112 5 8.86035 5.07902 8.7197 5.21967C8.57905 5.36032 8.50003 5.55109 8.50003 5.75C8.50003 5.94891 8.57905 6.13968 8.7197 6.28033C8.86035 6.42098 9.05112 6.5 9.25003 6.5H16.44L6.22003 16.72C6.14634 16.7887 6.08724 16.8715 6.04625 16.9635C6.00526 17.0555 5.98322 17.1548 5.98144 17.2555C5.97966 17.3562 5.99819 17.4562 6.03591 17.5496C6.07363 17.643 6.12977 17.7278 6.20099 17.799C6.27221 17.8703 6.35705 17.9264 6.45043 17.9641C6.54382 18.0018 6.64385 18.0204 6.74455 18.0186C6.84526 18.0168 6.94457 17.9948 7.03657 17.9538C7.12857 17.9128 7.21137 17.8537 7.28003 17.78L17.5 7.56V14.75C17.5 15.164 17.836 15.5 18.25 15.5Z" fill="black"/>
</svg>
