<svg width="24" height="24" viewBox="0 0 24 24" fill="none" xmlns="http://www.w3.org/2000/svg">
<path fill-rule="evenodd" clip-rule="evenodd" d="M14.25 3.74995C14.25 3.54284 14.4179 3.37497 14.625 3.375L20.2493 3.37575C20.4564 3.37578 20.6242 3.54363 20.6243 3.7507L20.625 9.37495C20.625 9.58206 20.4572 9.74997 20.25 9.75C20.0429 9.75003 19.875 9.58216 19.875 9.37505L19.8743 4.1257L14.625 4.125C14.4178 4.12497 14.25 3.95706 14.25 3.74995Z" fill="black"/>
<path fill-rule="evenodd" clip-rule="evenodd" d="M20.5125 3.48752C20.6589 3.63396 20.6589 3.8714 20.5125 4.01785L13.7625 10.7678C13.616 10.9143 13.3786 10.9143 13.2322 10.7678C13.0857 10.6214 13.0857 10.384 13.2322 10.2375L19.9822 3.48752C20.1286 3.34107 20.366 3.34107 20.5125 3.48752Z" fill="black"/>
<path fill-rule="evenodd" clip-rule="evenodd" d="M4.5 7.125C4.40054 7.125 4.30516 7.16451 4.23484 7.23484C4.16451 7.30516 4.125 7.40054 4.125 7.5V19.5C4.125 19.5995 4.16451 19.6948 4.23484 19.7652C4.30516 19.8355 4.40054 19.875 4.5 19.875H16.5C16.5995 19.875 16.6948 19.8355 16.7652 19.7652C16.8355 19.6948 16.875 19.5995 16.875 19.5V13.5C16.875 13.2929 17.0429 13.125 17.25 13.125C17.4571 13.125 17.625 13.2929 17.625 13.5V19.5C17.625 19.7984 17.5065 20.0845 17.2955 20.2955C17.0845 20.5065 16.7984 20.625 16.5 20.625H4.5C4.20163 20.625 3.91548 20.5065 3.70451 20.2955C3.49353 20.0845 3.375 19.7984 3.375 19.5V7.5C3.375 7.20163 3.49353 6.91548 3.70451 6.7045C3.91548 6.49353 4.20163 6.375 4.5 6.375H10.5C10.7071 6.375 10.875 6.54289 10.875 6.75C10.875 6.95711 10.7071 7.125 10.5 7.125H4.5Z" fill="black"/>
</svg>
