<svg width="24" height="24" viewBox="0 0 24 24" fill="none" xmlns="http://www.w3.org/2000/svg">
<path fill-rule="evenodd" clip-rule="evenodd" d="M17.263 2.177C17.5912 1.84908 18.0361 1.66488 18.5 1.66488C18.9639 1.66488 19.4089 1.84908 19.737 2.177L22.323 4.763C22.6509 5.09115 22.8352 5.53609 22.8352 6C22.8352 6.46392 22.6509 6.90885 22.323 7.237L19.53 10.03L19.518 10.043L8.69003 20.378C8.49221 20.5671 8.2528 20.7072 7.99103 20.787L2.46803 22.467C2.33813 22.5063 2.2 22.5096 2.06838 22.4766C1.93675 22.4435 1.81655 22.3754 1.72059 22.2794C1.62462 22.1835 1.5565 22.0633 1.52347 21.9317C1.49044 21.8 1.49374 21.6619 1.53303 21.532L3.20603 16.032C3.29377 15.7441 3.45427 15.4837 3.67203 15.276L14.476 4.963L17.263 2.177ZM14.988 6.548L4.70803 16.361C4.67676 16.3906 4.65369 16.4278 4.64103 16.469L3.37703 20.623L7.55403 19.352C7.59153 19.3405 7.62579 19.3202 7.65403 19.293L17.927 9.487L14.987 6.548H14.988ZM19 8.44L21.263 6.178C21.2863 6.15478 21.3048 6.12719 21.3174 6.09682C21.33 6.06645 21.3365 6.03389 21.3365 6.001C21.3365 5.96812 21.33 5.93556 21.3174 5.90518C21.3048 5.87481 21.2863 5.84722 21.263 5.824L18.677 3.238C18.6538 3.21472 18.6262 3.19625 18.5958 3.18365C18.5655 3.17104 18.5329 3.16455 18.5 3.16455C18.4671 3.16455 18.4346 3.17104 18.4042 3.18365C18.3738 3.19625 18.3463 3.21472 18.323 3.238L16.061 5.5L19 8.44Z" fill="black"/>
</svg>
