<svg width="24" height="24" viewBox="0 0 24 24" fill="none" xmlns="http://www.w3.org/2000/svg">
<path fill-rule="evenodd" clip-rule="evenodd" d="M7.88598 1.553C8.09182 1.34711 8.34576 1.19583 8.62482 1.11285C8.90387 1.02988 9.19922 1.01783 9.4841 1.07781C9.76899 1.13779 10.0344 1.26789 10.2563 1.45633C10.4782 1.64477 10.6496 1.8856 10.755 2.157L11.388 3.786C11.7048 4.60094 12.206 5.3315 12.8522 5.92048C13.4985 6.50946 14.2722 6.94089 15.113 7.181L19.072 8.312C19.365 8.39569 19.6311 8.55444 19.8439 8.77255C20.0567 8.99066 20.2089 9.26056 20.2854 9.55555C20.3619 9.85054 20.36 10.1604 20.2799 10.4544C20.1999 10.7485 20.0444 11.0165 19.829 11.232L16.06 15L21.654 20.595C21.7277 20.6637 21.7868 20.7465 21.8278 20.8385C21.8688 20.9305 21.8908 21.0298 21.8926 21.1305C21.8944 21.2312 21.8758 21.3312 21.8381 21.4246C21.8004 21.518 21.7442 21.6028 21.673 21.674C21.6018 21.7453 21.517 21.8014 21.4236 21.8391C21.3302 21.8768 21.2302 21.8954 21.1295 21.8936C21.0288 21.8918 20.9294 21.8698 20.8374 21.8288C20.7454 21.7878 20.6626 21.7287 20.594 21.655L15 16.061L11.232 19.829C11.0165 20.0445 10.7484 20.1999 10.4544 20.2799C10.1604 20.36 9.85052 20.3619 9.55554 20.2854C9.26055 20.2089 8.99065 20.0568 8.77254 19.8439C8.55443 19.6311 8.39567 19.365 8.31199 19.072L7.18098 15.112C6.94067 14.2715 6.50916 13.4979 5.92019 12.8519C5.33122 12.2058 4.60078 11.7048 3.78598 11.388L2.15598 10.755C1.88466 10.6495 1.64393 10.4781 1.4556 10.2561C1.26726 10.0341 1.13727 9.7687 1.0774 9.48382C1.01752 9.19895 1.02966 8.90364 1.1127 8.62464C1.19574 8.34564 1.34707 8.09176 1.55298 7.886L7.88598 1.553ZM14.475 14.465L14.47 14.47L14.465 14.475L10.171 18.768C10.1402 18.7987 10.1019 18.8209 10.06 18.8323C10.018 18.8438 9.97374 18.844 9.93163 18.8331C9.88951 18.8222 9.85097 18.8005 9.81982 18.7702C9.78866 18.7398 9.76597 18.7018 9.75398 18.66L8.62398 14.7C8.32014 13.6369 7.77439 12.6584 7.02945 11.8413C6.28451 11.0242 5.36059 10.3906 4.32998 9.99L2.69998 9.356C2.66121 9.34093 2.62681 9.31642 2.5999 9.28469C2.57299 9.25296 2.55442 9.21502 2.54588 9.1743C2.53734 9.13359 2.53909 9.09138 2.55099 9.05152C2.56288 9.01165 2.58453 8.97538 2.61398 8.946L8.94698 2.614C8.97637 2.58455 9.01264 2.56289 9.0525 2.551C9.09237 2.53911 9.13457 2.53735 9.17529 2.54589C9.21601 2.55443 9.25395 2.573 9.28568 2.59991C9.3174 2.62682 9.34191 2.66122 9.35699 2.7L9.98998 4.33C10.3908 5.36037 11.0245 6.28406 11.8416 7.02881C12.6587 7.77356 13.637 8.31918 14.7 8.623L18.66 9.754C18.7018 9.76598 18.7398 9.78868 18.7701 9.81983C18.8005 9.85099 18.8222 9.88953 18.8331 9.93164C18.844 9.97376 18.8438 10.018 18.8323 10.06C18.8209 10.1019 18.7987 10.1402 18.768 10.171L14.475 14.465Z" fill="black"/>
</svg>
