<svg width="24" height="24" viewBox="0 0 24 24" fill="none" xmlns="http://www.w3.org/2000/svg">
<g clip-path="url(#clip0)">
<g filter="url(#filter0_d)">
<path fill-rule="evenodd" clip-rule="evenodd" d="M4.27565 4.12223C3.83256 4.42991 3.52985 4.90101 3.43411 5.43188C3.33837 5.96276 3.45744 6.50992 3.76512 6.95301L5.1604 8.96228L7.55251 12.4071L6.63259 11.9737C6.39104 11.8598 6.12941 11.7945 5.86264 11.7816C5.5957 11.7688 5.32885 11.8086 5.07733 11.899C4.8258 11.9893 4.59455 12.1283 4.39678 12.308C4.199 12.4878 4.03859 12.7047 3.9247 12.9465C3.81082 13.1882 3.74569 13.4501 3.73305 13.717C3.72041 13.984 3.7605 14.2508 3.85103 14.5022C3.94156 14.7537 4.08075 14.9848 4.26065 15.1824C4.43478 15.3737 4.64374 15.53 4.87628 15.6429C7.25825 17.0097 9.07367 17.8961 10.6522 18.1831C12.2957 18.4819 13.6534 18.1278 15.0815 17.1361C15.771 16.6573 16.3594 16.0473 16.8132 15.3411C17.267 14.6349 17.5773 13.8462 17.7263 13.02C17.8753 12.1939 17.8601 11.3465 17.6816 10.5262C17.5031 9.70597 17.1648 8.92889 16.686 8.23937L15.0286 5.85273C14.7209 5.40964 14.2498 5.10693 13.719 5.01119C13.1881 4.91545 12.6409 5.03452 12.1979 5.3422C11.887 5.55807 11.6452 5.85436 11.4956 6.1953C11.2931 6.07772 11.07 5.99487 10.8351 5.95252C10.3043 5.85678 9.75709 5.97585 9.31401 6.28353C9.06397 6.45717 8.85863 6.68284 8.70996 6.94194L7.10642 4.63275C6.79874 4.18967 6.32764 3.88696 5.79677 3.79122C5.26589 3.69547 4.71873 3.81454 4.27565 4.12223Z" fill="black"/>
<path d="M3.43411 5.43188L2.94205 5.34314L2.94205 5.34314L3.43411 5.43188ZM5.79677 3.79122L5.70803 4.28328L5.70803 4.28328L5.79677 3.79122ZM8.70996 6.94194L8.29927 7.22713L8.75019 7.87647L9.14364 7.19078L8.70996 6.94194ZM10.8351 5.95252L10.9239 5.46046L10.9239 5.46046L10.8351 5.95252ZM11.4956 6.1953L11.2445 6.62768L11.7284 6.90873L11.9534 6.39629L11.4956 6.1953ZM13.719 5.01119L13.8077 4.51913L13.8077 4.51913L13.719 5.01119ZM17.6816 10.5262L17.193 10.6326L17.193 10.6326L17.6816 10.5262ZM17.7263 13.02L18.2183 13.1088L18.2183 13.1088L17.7263 13.02ZM16.8132 15.3411L16.3926 15.0708L16.3926 15.0708L16.8132 15.3411ZM10.6522 18.1831L10.5627 18.675L10.5627 18.675L10.6522 18.1831ZM4.87628 15.6429L5.12514 15.2092L5.11019 15.2006L5.09469 15.1931L4.87628 15.6429ZM4.26065 15.1824L4.6304 14.8459L4.6304 14.8459L4.26065 15.1824ZM3.85103 14.5022L3.38059 14.6716L3.38059 14.6716L3.85103 14.5022ZM3.73305 13.717L4.23249 13.7407L4.23249 13.7407L3.73305 13.717ZM3.9247 12.9465L3.47237 12.7334L3.47237 12.7334L3.9247 12.9465ZM4.39678 12.308L4.73305 12.678L4.73305 12.678L4.39678 12.308ZM5.07733 11.899L4.90835 11.4284L4.90834 11.4284L5.07733 11.899ZM5.86264 11.7816L5.83857 12.2811L5.83857 12.2811L5.86264 11.7816ZM6.63259 11.9737L6.41925 12.4259L6.41952 12.4261L6.63259 11.9737ZM7.55251 12.4071L7.33944 12.8594L9.02755 13.6546L7.9632 12.1219L7.55251 12.4071ZM10.3536 9.64645C10.1583 9.45118 9.84171 9.45118 9.64645 9.64645C9.45118 9.84171 9.45118 10.1583 9.64645 10.3536L10.3536 9.64645ZM11.5528 12.7236C11.6763 12.9706 11.9766 13.0707 12.2236 12.9472C12.4706 12.8237 12.5707 12.5234 12.4472 12.2764L11.5528 12.7236ZM12.8536 8.14645C12.6583 7.95118 12.3417 7.95118 12.1464 8.14645C11.9512 8.34171 11.9512 8.65829 12.1464 8.85355L12.8536 8.14645ZM14.0528 11.2236C14.1763 11.4706 14.4766 11.5707 14.7236 11.4472C14.9706 11.3237 15.0707 11.0234 14.9472 10.7764L14.0528 11.2236ZM3.99046 3.71154C3.43845 4.09486 3.06133 4.68177 2.94205 5.34314L3.92617 5.52063C3.99838 5.12026 4.22667 4.76497 4.56084 4.53292L3.99046 3.71154ZM5.88551 3.29915C5.22413 3.17988 4.54246 3.32822 3.99046 3.71154L4.56084 4.53292C4.895 4.30087 5.30765 4.21107 5.70803 4.28328L5.88551 3.29915ZM7.51712 4.34756C7.13379 3.79555 6.54689 3.41843 5.88551 3.29915L5.70803 4.28328C6.1084 4.35548 6.46369 4.58378 6.69573 4.91794L7.51712 4.34756ZM9.12065 6.65675L7.51712 4.34756L6.69573 4.91794L8.29927 7.22713L9.12065 6.65675ZM9.02882 5.87284C8.7173 6.08917 8.46148 6.37034 8.27628 6.69309L9.14364 7.19078C9.25578 6.99535 9.41063 6.82517 9.5992 6.69422L9.02882 5.87284ZM10.9239 5.46046C10.2625 5.34118 9.58083 5.48952 9.02882 5.87284L9.5992 6.69422C9.93336 6.46218 10.346 6.37238 10.7464 6.44458L10.9239 5.46046ZM11.7467 5.76293C11.4944 5.61644 11.2164 5.51322 10.9239 5.46046L10.7464 6.44458C10.9235 6.47653 11.0918 6.539 11.2445 6.62768L11.7467 5.76293ZM11.9127 4.93151C11.5254 5.20045 11.2242 5.5696 11.0377 5.99431L11.9534 6.39629C12.0663 6.13912 12.2486 5.91568 12.483 5.75289L11.9127 4.93151ZM13.8077 4.51913C13.1463 4.39985 12.4647 4.54819 11.9127 4.93151L12.483 5.75289C12.8172 5.52084 13.2299 5.43105 13.6302 5.50325L13.8077 4.51913ZM15.4393 5.56754C15.056 5.01553 14.4691 4.63841 13.8077 4.51913L13.6302 5.50325C14.0306 5.57546 14.3859 5.80375 14.6179 6.13792L15.4393 5.56754ZM17.0966 7.95418L15.4393 5.56754L14.6179 6.13792L16.2753 8.52456L17.0966 7.95418ZM18.1702 10.4199C17.9777 9.53549 17.6129 8.69763 17.0966 7.95418L16.2753 8.52456C16.7166 9.16015 17.0285 9.87644 17.193 10.6326L18.1702 10.4199ZM18.2183 13.1088C18.379 12.218 18.3626 11.3043 18.1702 10.4199L17.193 10.6326C17.3576 11.3887 17.3716 12.1698 17.2342 12.9313L18.2183 13.1088ZM17.2339 15.6114C17.7232 14.8499 18.0577 13.9995 18.2183 13.1088L17.2342 12.9313C17.0969 13.6928 16.8109 14.4198 16.3926 15.0708L17.2339 15.6114ZM15.3666 17.5468C16.1101 17.0305 16.7446 16.3729 17.2339 15.6114L16.3926 15.0708C15.9743 15.7218 15.4319 16.284 14.7963 16.7254L15.3666 17.5468ZM10.5627 18.675C12.3535 19.0006 13.8441 18.6041 15.3666 17.5468L14.7963 16.7254C13.4627 17.6514 12.2379 17.9632 10.7416 17.6911L10.5627 18.675ZM4.62743 16.0766C7.00646 17.4417 8.88968 18.3709 10.5627 18.675L10.7416 17.6911C9.25765 17.4214 7.51005 16.5778 5.12514 15.2092L4.62743 16.0766ZM3.89091 15.519C4.10784 15.7573 4.36817 15.952 4.65788 16.0927L5.09469 15.1931C4.91931 15.108 4.76172 14.9901 4.6304 14.8459L3.89091 15.519ZM3.38059 14.6716C3.49337 14.9849 3.66679 15.2728 3.89091 15.519L4.6304 14.8459C4.49472 14.6968 4.38974 14.5225 4.32147 14.3329L3.38059 14.6716ZM3.23361 13.6934C3.21786 14.0259 3.26781 14.3584 3.38059 14.6716L4.32147 14.3329C4.25319 14.1432 4.22296 13.942 4.23249 13.7407L3.23361 13.6934ZM3.47237 12.7334C3.33049 13.0346 3.24936 13.3608 3.23361 13.6934L4.23249 13.7407C4.24202 13.5394 4.29114 13.3419 4.37703 13.1595L3.47237 12.7334ZM4.0605 11.938C3.81411 12.1619 3.61426 12.4322 3.47237 12.7334L4.37703 13.1595C4.46292 12.9772 4.5839 12.8136 4.73305 12.678L4.0605 11.938ZM4.90834 11.4284C4.59499 11.5409 4.30689 11.7141 4.0605 11.938L4.73305 12.678C4.88221 12.5425 5.05662 12.4377 5.24631 12.3695L4.90834 11.4284ZM5.88671 11.2822C5.55415 11.2662 5.2217 11.3159 4.90835 11.4284L5.24631 12.3695C5.436 12.3014 5.63725 12.2714 5.83857 12.2811L5.88671 11.2822ZM6.84593 11.5215C6.54501 11.3796 6.21906 11.2982 5.88671 11.2822L5.83857 12.2811C6.03976 12.2908 6.23708 12.34 6.41925 12.4259L6.84593 11.5215ZM2.94205 5.34314C2.82277 6.00452 2.97111 6.68619 3.35443 7.2382L4.17581 6.66782C3.94377 6.33365 3.85397 5.921 3.92617 5.52063L2.94205 5.34314ZM7.76559 11.9547L6.84566 11.5214L6.41952 12.4261L7.33944 12.8594L7.76559 11.9547ZM4.74971 9.24747L7.14182 12.6923L7.9632 12.1219L5.57109 8.67709L4.74971 9.24747ZM3.35443 7.2382L4.74971 9.24747L5.57109 8.67709L4.17581 6.66782L3.35443 7.2382ZM9.64645 10.3536C9.88722 10.5943 10.2771 11.0085 10.6542 11.4586C11.0382 11.9169 11.3806 12.3793 11.5528 12.7236L12.4472 12.2764C12.2194 11.8207 11.8118 11.2831 11.4208 10.8164C11.0229 10.3415 10.6128 9.90568 10.3536 9.64645L9.64645 10.3536ZM12.1464 8.85355C12.3872 9.09432 12.7771 9.50853 13.1542 9.95861C13.5382 10.4169 13.8806 10.8793 14.0528 11.2236L14.9472 10.7764C14.7194 10.3207 14.3118 9.78313 13.9208 9.31639C13.5229 8.84147 13.1128 8.40568 12.8536 8.14645L12.1464 8.85355Z" fill="white"/>
</g>
</g>
<defs>
<filter id="filter0_d" x="-4.6265" y="-1.04843" width="28.6544" height="29.3244" filterUnits="userSpaceOnUse" color-interpolation-filters="sRGB">
<feFlood flood-opacity="0" result="BackgroundImageFix"/>
<feColorMatrix in="SourceAlpha" type="matrix" values="0 0 0 0 0 0 0 0 0 0 0 0 0 0 0 0 0 0 127 0" result="hardAlpha"/>
<feOffset dy="3"/>
<feGaussianBlur stdDeviation="1.5"/>
<feComposite in2="hardAlpha" operator="out"/>
<feColorMatrix type="matrix" values="0 0 0 0 0 0 0 0 0 0 0 0 0 0 0 0 0 0 0.16 0"/>
<feBlend mode="normal" in2="BackgroundImageFix" result="effect1_dropShadow"/>
<feBlend mode="normal" in="SourceGraphic" in2="effect1_dropShadow" result="shape"/>
</filter>
<clipPath id="clip0">
<rect width="24" height="24" fill="white"/>
</clipPath>
</defs>
</svg>
