<svg width="24" height="24" viewBox="0 0 24 24" fill="none" xmlns="http://www.w3.org/2000/svg">
<path fill-rule="evenodd" clip-rule="evenodd" d="M14.53 15.59C12.8986 16.9486 10.8061 17.626 8.688 17.4813C6.56985 17.3365 4.58905 16.3808 3.15762 14.8128C1.72619 13.2449 0.95434 11.1854 1.00262 9.06287C1.05091 6.94033 1.91561 4.91811 3.41686 3.41686C4.91811 1.91561 6.94033 1.05091 9.06287 1.00263C11.1854 0.954344 13.2449 1.72619 14.8128 3.15762C16.3808 4.58905 17.3365 6.56986 17.4813 8.688C17.626 10.8062 16.9486 12.8986 15.59 14.53L21.28 20.22C21.3537 20.2887 21.4128 20.3715 21.4538 20.4635C21.4948 20.5555 21.5168 20.6548 21.5186 20.7555C21.5204 20.8562 21.5018 20.9562 21.4641 21.0496C21.4264 21.143 21.3703 21.2278 21.299 21.299C21.2278 21.3703 21.143 21.4264 21.0496 21.4641C20.9562 21.5018 20.8562 21.5204 20.7555 21.5186C20.6548 21.5168 20.5555 21.4948 20.4635 21.4538C20.3715 21.4128 20.2887 21.3537 20.22 21.28L14.53 15.59ZM2.5 9.25C2.50022 8.15331 2.76767 7.07319 3.27918 6.1031C3.79069 5.13301 4.53087 4.30215 5.43568 3.68243C6.34048 3.06271 7.38266 2.67278 8.47204 2.54639C9.56143 2.41999 10.6652 2.56094 11.6879 2.95702C12.7105 3.35311 13.6213 3.99241 14.3413 4.81961C15.0614 5.64681 15.569 6.637 15.8204 7.7045C16.0717 8.77201 16.0591 9.88467 15.7838 10.9462C15.5084 12.0078 14.9785 12.9863 14.24 13.797C14.1386 13.8342 14.0464 13.893 13.9699 13.9693C13.8934 14.0456 13.8344 14.1376 13.797 14.239C12.83 15.1204 11.6276 15.7018 10.3362 15.9123C9.04481 16.1229 7.72005 15.9536 6.52312 15.425C5.3262 14.8964 4.3087 14.0313 3.59444 12.935C2.88018 11.8387 2.49994 10.5584 2.5 9.25Z" fill="black"/>
</svg>
