<svg width="24" height="24" viewBox="0 0 24 24" fill="none" xmlns="http://www.w3.org/2000/svg">
<path fill-rule="evenodd" clip-rule="evenodd" d="M12.596 2.043C11.295 1.951 10.293 3.029 10.293 4.249V5.302C10.293 7.968 8.48 9.087 7.519 9.502C7.35193 9.57075 7.17576 9.61488 6.996 9.633C6.96632 9.19013 6.76947 8.77509 6.4453 8.47189C6.12113 8.1687 5.69386 8.00002 5.25 8H3.75C3.28587 8 2.84075 8.18437 2.51256 8.51256C2.18437 8.84075 2 9.28587 2 9.75V20.25C2 21.217 2.784 22 3.75 22H5.25C5.68475 22.0001 6.10395 21.8383 6.42597 21.5462C6.74799 21.2542 6.94977 20.8527 6.992 20.42C7.83 20.48 8.659 20.716 9.682 21.006L10.284 21.176C11.748 21.582 13.497 22 15.828 22C18.016 22 19.521 21.796 20.411 20.628C20.833 20.074 21.061 19.373 21.227 18.578C21.375 17.87 21.489 17.008 21.623 15.998L21.674 15.608C21.993 13.222 22.002 11.428 21.451 10.214C21.158 9.57 20.708 9.089 20.096 8.783C19.506 8.487 18.812 8.379 18.06 8.379H16.01L16.066 7.95C16.091 7.77 16.116 7.578 16.142 7.378C16.202 6.895 16.259 6.372 16.259 5.94C16.259 4.695 16.037 3.687 15.339 2.999C14.655 2.324 13.671 2.119 12.596 2.043V2.043ZM7 18.918C8.059 18.982 9.079 19.273 10.118 19.57L10.686 19.73C12.092 20.12 13.692 20.5 15.828 20.5C18.105 20.5 18.832 20.226 19.218 19.719C19.434 19.436 19.606 19.001 19.758 18.271C19.894 17.621 20 16.821 20.137 15.794L20.187 15.41C20.507 13.01 20.44 11.615 20.085 10.835C19.925 10.483 19.71 10.267 19.425 10.124C19.12 9.971 18.685 9.879 18.06 9.879H15.69C15.009 9.879 14.397 9.309 14.479 8.551C14.505 8.308 14.544 8.014 14.584 7.717L14.654 7.19C14.714 6.708 14.759 6.269 14.759 5.94C14.759 4.815 14.546 4.323 14.286 4.067C14.011 3.797 13.512 3.612 12.491 3.539C12.14 3.515 11.793 3.813 11.793 4.249V5.302C11.793 8.852 9.305 10.365 8.113 10.879C7.741 11.039 7.359 11.111 7 11.139V18.919V18.918ZM3.75 20.5C3.6837 20.5 3.62011 20.4737 3.57322 20.4268C3.52634 20.3799 3.5 20.3163 3.5 20.25V9.75C3.5 9.6837 3.52634 9.62011 3.57322 9.57322C3.62011 9.52634 3.6837 9.5 3.75 9.5H5.25C5.3163 9.5 5.37989 9.52634 5.42678 9.57322C5.47366 9.62011 5.5 9.6837 5.5 9.75V20.25C5.5 20.3163 5.47366 20.3799 5.42678 20.4268C5.37989 20.4737 5.3163 20.5 5.25 20.5H3.75Z" fill="black"/>
</svg>
