<svg width="24" height="24" viewBox="0 0 24 24" fill="none" xmlns="http://www.w3.org/2000/svg">
<path fill-rule="evenodd" clip-rule="evenodd" d="M12.596 21.957C11.295 22.049 10.293 20.971 10.293 19.751V18.698C10.293 16.032 8.48 14.913 7.519 14.498C7.35188 14.4296 7.17571 14.3858 6.996 14.368C6.96608 14.8107 6.76913 15.2255 6.44498 15.5285C6.12083 15.8315 5.6937 16 5.25 16H3.75C3.28587 16 2.84075 15.8156 2.51256 15.4874C2.18437 15.1592 2 14.7141 2 14.25V3.75C2 2.784 2.784 2 3.75 2H5.25C5.68475 1.99993 6.10395 2.16169 6.42597 2.45376C6.74799 2.74583 6.94977 3.14731 6.992 3.58C7.83 3.52 8.659 3.284 9.682 2.994L10.284 2.824C11.748 2.419 13.497 2 15.828 2C18.016 2 19.521 2.204 20.411 3.372C20.833 3.926 21.061 4.627 21.227 5.422C21.375 6.13 21.489 6.992 21.623 8.002L21.674 8.392C21.993 10.778 22.002 12.572 21.451 13.786C21.158 14.43 20.708 14.911 20.096 15.217C19.506 15.513 18.812 15.621 18.06 15.621H16.01L16.066 16.05C16.091 16.23 16.116 16.422 16.142 16.622C16.202 17.105 16.259 17.628 16.259 18.06C16.259 19.305 16.037 20.313 15.339 21.002C14.655 21.676 13.671 21.881 12.596 21.957V21.957ZM7 5.082C8.059 5.018 9.079 4.727 10.118 4.431C10.306 4.377 10.495 4.323 10.686 4.271C12.092 3.879 13.692 3.5 15.828 3.5C18.105 3.5 18.832 3.774 19.218 4.281C19.434 4.564 19.606 4.999 19.758 5.729C19.894 6.379 20 7.179 20.137 8.206L20.187 8.591C20.507 10.989 20.44 12.385 20.085 13.165C19.925 13.517 19.71 13.734 19.425 13.876C19.12 14.029 18.685 14.121 18.06 14.121H15.69C15.009 14.121 14.397 14.691 14.479 15.449C14.505 15.693 14.544 15.986 14.584 16.283L14.654 16.81C14.714 17.292 14.759 17.732 14.759 18.06C14.759 19.185 14.546 19.677 14.286 19.933C14.011 20.203 13.512 20.389 12.491 20.461C12.14 20.485 11.793 20.187 11.793 19.751V18.698C11.793 15.148 9.305 13.635 8.113 13.121C7.75884 12.9737 7.38278 12.8858 7 12.861V5.08V5.082ZM3.75 3.5C3.6837 3.5 3.62011 3.52634 3.57322 3.57322C3.52634 3.62011 3.5 3.6837 3.5 3.75V14.25C3.5 14.388 3.612 14.5 3.75 14.5H5.25C5.3163 14.5 5.37989 14.4737 5.42678 14.4268C5.47366 14.3799 5.5 14.3163 5.5 14.25V3.75C5.5 3.6837 5.47366 3.62011 5.42678 3.57322C5.37989 3.52634 5.3163 3.5 5.25 3.5H3.75Z" fill="black"/>
</svg>
